<svg data-v-423bf9ae="" xmlns="http://www.w3.org/2000/svg" viewBox="0 0 646 107" class="iconLeftSlogan"><!----><!----><!----><g data-v-423bf9ae="" id="c92eea62-de27-4a0c-a3a0-a1857b9e22ef" fill="#253D52" transform="matrix(7.653061541007602,0,0,7.653061541007602,94.14414399514709,-25.71428851483524)"><path d="M2.80 5.60L4.48 5.60L4.48 5.60Q4.54 5.82 4.54 6.16L4.54 6.16L4.54 6.16Q4.54 6.48 4.48 6.72L4.48 6.72L2.80 6.72L2.80 6.72Q2.86 6.94 2.86 7.28L2.86 7.28L2.86 7.28Q2.86 7.60 2.80 7.84L2.80 7.84L2.80 7.84Q2.86 8.06 2.86 8.40L2.86 8.40L2.86 8.40Q2.86 8.72 2.80 8.96L2.80 8.96L2.80 8.96Q2.86 9.18 2.86 9.52L2.86 9.52L2.86 9.52Q2.86 9.84 2.80 10.08L2.80 10.08L3.92 10.08L3.92 10.08Q3.98 10.30 3.98 10.64L3.98 10.64L3.98 10.64Q3.98 10.96 3.92 11.20L3.92 11.20L1.12 11.20L1.12 11.20Q1.06 10.96 1.06 10.64L1.06 10.64L1.06 10.64Q1.06 10.30 1.12 10.08L1.12 10.08L1.68 10.08L1.68 10.08Q1.62 9.84 1.62 9.52L1.62 9.52L1.62 9.52Q1.62 9.18 1.68 8.96L1.68 8.96L1.68 8.96Q1.62 8.72 1.62 8.40L1.62 8.40L1.62 8.40Q1.62 8.06 1.68 7.84L1.68 7.84L1.68 7.84Q1.62 7.60 1.62 7.28L1.62 7.28L1.62 7.28Q1.62 6.94 1.68 6.72L1.68 6.72L1.12 6.72L1.12 6.72Q1.06 6.48 1.06 6.16L1.06 6.16L1.06 6.16Q1.06 5.82 1.12 5.60L1.12 5.60L1.68 5.60L1.68 5.60Q1.62 5.36 1.62 5.04L1.62 5.04L1.62 5.04Q1.62 4.70 1.68 4.48L1.68 4.48L2.24 4.48L2.24 4.48Q2.18 4.24 2.18 3.92L2.18 3.92L2.18 3.92Q2.18 3.58 2.24 3.36L2.24 3.36L4.48 3.36L4.48 3.36Q4.54 3.58 4.54 3.92L4.54 3.92L4.54 3.92Q4.54 4.24 4.48 4.48L4.48 4.48L2.80 4.48L2.80 4.48Q2.86 4.70 2.86 5.04L2.86 5.04L2.86 5.04Q2.86 5.36 2.80 5.60L2.80 5.60ZM7.76 9.52L7.76 9.52Q7.76 9.84 7.70 10.08L7.70 10.08L9.10 10.08L9.10 10.08Q9.16 10.30 9.16 10.64L9.16 10.64L9.16 10.64Q9.16 10.96 9.10 11.20L9.10 11.20L6.86 11.20L6.86 11.20Q6.80 10.96 6.80 10.64L6.80 10.64L6.80 10.64Q6.80 10.30 6.86 10.08L6.86 10.08L6.16 10.08L6.16 10.08Q6.10 9.84 6.10 9.52L6.10 9.52L6.10 9.52Q6.10 9.18 6.16 8.96L6.16 8.96L6.16 8.96Q6.10 8.72 6.10 8.40L6.10 8.40L6.10 8.40Q6.10 8.06 6.16 7.84L6.16 7.84L6.16 7.84Q6.10 7.60 6.10 7.28L6.10 7.28L6.10 7.28Q6.10 6.94 6.16 6.72L6.16 6.72L6.16 6.72Q6.10 6.48 6.10 6.16L6.10 6.16L6.10 6.16Q6.10 5.82 6.16 5.60L6.16 5.60L7.28 5.60L7.28 5.60Q7.34 5.82 7.34 6.16L7.34 6.16L7.34 6.16Q7.34 6.48 7.28 6.72L7.28 6.72L7.28 6.72Q7.34 6.94 7.34 7.28L7.34 7.28L7.34 7.28Q7.34 7.60 7.28 7.84L7.28 7.84L7.28 7.84Q7.34 8.06 7.34 8.40L7.34 8.40L7.34 8.40Q7.34 8.72 7.28 8.96L7.28 8.96L7.70 8.96L7.70 8.96Q7.76 9.18 7.76 9.52L7.76 9.52ZM10.64 6.72L10.64 6.72Q10.70 6.94 10.70 7.28L10.70 7.28L10.70 7.28Q10.70 7.60 10.64 7.84L10.64 7.84L10.64 7.84Q10.70 8.06 10.70 8.40L10.70 8.40L10.70 8.40Q10.70 8.72 10.64 8.96L10.64 8.96L10.64 8.96Q10.70 9.18 10.70 9.52L10.70 9.52L10.70 9.52Q10.70 9.84 10.64 10.08L10.64 10.08L10.64 10.08Q10.70 10.30 10.70 10.64L10.70 10.64L10.70 10.64Q10.70 10.96 10.64 11.20L10.64 11.20L9.52 11.20L9.52 11.20Q9.46 10.96 9.46 10.64L9.46 10.64L9.46 10.64Q9.46 10.30 9.52 10.08L9.52 10.08L9.10 10.08L9.10 10.08Q9.04 9.84 9.04 9.52L9.04 9.52L9.04 9.52Q9.04 9.18 9.10 8.96L9.10 8.96L9.52 8.96L9.52 8.96Q9.46 8.72 9.46 8.40L9.46 8.40L9.46 8.40Q9.46 8.06 9.52 7.84L9.52 7.84L9.52 7.84Q9.46 7.60 9.46 7.28L9.46 7.28L9.46 7.28Q9.46 6.94 9.52 6.72L9.52 6.72L9.52 6.72Q9.46 6.48 9.46 6.16L9.46 6.16L9.46 6.16Q9.46 5.82 9.52 5.60L9.52 5.60L10.64 5.60L10.64 5.60Q10.70 5.82 10.70 6.16L10.70 6.16L10.70 6.16Q10.70 6.48 10.64 6.72L10.64 6.72ZM12.80 6.16L12.80 6.16Q12.80 6.48 12.74 6.72L12.74 6.72L13.30 6.72L13.30 6.72Q13.36 6.94 13.36 7.28L13.36 7.28L13.36 7.28Q13.36 7.60 13.30 7.84L13.30 7.84L12.88 7.84L12.88 7.84Q12.94 8.06 12.94 8.40L12.94 8.40L12.94 8.40Q12.94 8.72 12.88 8.96L12.88 8.96L12.88 8.96Q12.94 9.18 12.94 9.52L12.94 9.52L12.94 9.52Q12.94 9.84 12.88 10.08L12.88 10.08L12.88 10.08Q12.94 10.30 12.94 10.64L12.94 10.64L12.94 10.64Q12.94 10.96 12.88 11.20L12.88 11.20L11.76 11.20L11.76 11.20Q11.70 10.96 11.70 10.64L11.70 10.64L11.70 10.64Q11.70 10.30 11.76 10.08L11.76 10.08L11.76 10.08Q11.70 9.84 11.70 9.52L11.70 9.52L11.70 9.52Q11.70 9.18 11.76 8.96L11.76 8.96L11.76 8.96Q11.70 8.72 11.70 8.40L11.70 8.40L11.70 8.40Q11.70 8.06 11.76 7.84L11.76 7.84L11.76 7.84Q11.70 7.60 11.70 7.28L11.70 7.28L11.70 7.28Q11.70 6.94 11.76 6.72L11.76 6.72L11.76 6.72Q11.70 6.48 11.70 6.16L11.70 6.16L11.70 6.16Q11.70 5.82 11.76 5.60L11.76 5.60L12.74 5.60L12.74 5.60Q12.80 5.82 12.80 6.16L12.80 6.16ZM16.24 7.84L16.24 7.84Q16.30 8.06 16.30 8.40L16.30 8.40L16.30 8.40Q16.30 8.72 16.24 8.96L16.24 8.96L16.24 8.96Q16.30 9.18 16.30 9.52L16.30 9.52L16.30 9.52Q16.30 9.84 16.24 10.08L16.24 10.08L16.24 10.08Q16.30 10.30 16.30 10.64L16.30 10.64L16.30 10.64Q16.30 10.96 16.24 11.20L16.24 11.20L15.12 11.20L15.12 11.20Q15.06 10.96 15.06 10.64L15.06 10.64L15.06 10.64Q15.06 10.30 15.12 10.08L15.12 10.08L15.12 10.08Q15.06 9.84 15.06 9.52L15.06 9.52L15.06 9.52Q15.06 9.18 15.12 8.96L15.12 8.96L15.12 8.96Q15.06 8.72 15.06 8.40L15.06 8.40L15.06 8.40Q15.06 8.06 15.12 7.84L15.12 7.84L15.12 7.84Q15.06 7.60 15.06 7.28L15.06 7.28L15.06 7.28Q15.06 6.94 15.12 6.72L15.12 6.72L13.30 6.72L13.30 6.72Q13.24 6.48 13.24 6.16L13.24 6.16L13.24 6.16Q13.24 5.82 13.30 5.60L13.30 5.60L15.54 5.60L15.54 5.60Q15.60 5.82 15.60 6.16L15.60 6.16L15.60 6.16Q15.60 6.48 15.54 6.72L15.54 6.72L16.24 6.72L16.24 6.72Q16.30 6.94 16.30 7.28L16.30 7.28L16.30 7.28Q16.30 7.60 16.24 7.84L16.24 7.84ZM27.50 6.16L27.50 6.16Q27.50 6.48 27.44 6.72L27.44 6.72L27.44 6.72Q27.50 6.94 27.50 7.28L27.50 7.28L27.50 7.28Q27.50 7.60 27.44 7.84L27.44 7.84L27.02 7.84L27.02 7.84Q27.08 8.06 27.08 8.40L27.08 8.40L27.08 8.40Q27.08 8.72 27.02 8.96L27.02 8.96L27.02 8.96Q27.08 9.18 27.08 9.52L27.08 9.52L27.08 9.52Q27.08 9.84 27.02 10.08L27.02 10.08L26.74 10.08L26.74 10.08Q26.80 10.30 26.80 10.64L26.80 10.64L26.80 10.64Q26.80 10.96 26.74 11.20L26.74 11.20L25.90 11.20L25.90 11.20Q25.84 10.96 25.84 10.64L25.84 10.64L25.84 10.64Q25.84 10.30 25.90 10.08L25.90 10.08L25.62 10.08L25.62 10.08Q25.56 9.84 25.56 9.52L25.56 9.52L25.56 9.52Q25.56 9.18 25.62 8.96L25.62 8.96L24.78 8.96L24.78 8.96Q24.84 9.18 24.84 9.52L24.84 9.52L24.84 9.52Q24.84 9.84 24.78 10.08L24.78 10.08L24.50 10.08L24.50 10.08Q24.56 10.30 24.56 10.64L24.56 10.64L24.56 10.64Q24.56 10.96 24.50 11.20L24.50 11.20L23.66 11.20L23.66 11.20Q23.60 10.96 23.60 10.64L23.60 10.64L23.60 10.64Q23.60 10.30 23.66 10.08L23.66 10.08L23.38 10.08L23.38 10.08Q23.32 9.84 23.32 9.52L23.32 9.52L23.32 9.52Q23.32 9.18 23.38 8.96L23.38 8.96L23.38 8.96Q23.32 8.72 23.32 8.40L23.32 8.40L23.32 8.40Q23.32 8.06 23.38 7.84L23.38 7.84L22.96 7.84L22.96 7.84Q22.90 7.60 22.90 7.28L22.90 7.28L22.90 7.28Q22.90 6.94 22.96 6.72L22.96 6.72L22.96 6.72Q22.90 6.48 22.90 6.16L22.90 6.16L22.90 6.16Q22.90 5.82 22.96 5.60L22.96 5.60L24.08 5.60L24.08 5.60Q24.14 5.82 24.14 6.16L24.14 6.16L24.14 6.16Q24.14 6.48 24.08 6.72L24.08 6.72L24.08 6.72Q24.14 6.94 24.14 7.28L24.14 7.28L24.14 7.28Q24.14 7.60 24.08 7.84L24.08 7.84L24.08 7.84Q24.14 8.06 24.14 8.40L24.14 8.40L24.14 8.40Q24.14 8.72 24.08 8.96L24.08 8.96L24.50 8.96L24.50 8.96Q24.44 8.72 24.44 8.40L24.44 8.40L24.44 8.40Q24.44 8.06 24.50 7.84L24.50 7.84L24.78 7.84L24.78 7.84Q24.72 7.60 24.72 7.28L24.72 7.28L24.72 7.28Q24.72 6.94 24.78 6.72L24.78 6.72L24.78 6.72Q24.72 6.48 24.72 6.16L24.72 6.16L24.72 6.16Q24.72 5.82 24.78 5.60L24.78 5.60L25.62 5.60L25.62 5.60Q25.68 5.82 25.68 6.16L25.68 6.16L25.68 6.16Q25.68 6.48 25.62 6.72L25.62 6.72L25.62 6.72Q25.68 6.94 25.68 7.28L25.68 7.28L25.68 7.28Q25.68 7.60 25.62 7.84L25.62 7.84L25.90 7.84L25.90 7.84Q25.96 8.06 25.96 8.40L25.96 8.40L25.96 8.40Q25.96 8.72 25.90 8.96L25.90 8.96L26.32 8.96L26.32 8.96Q26.26 8.72 26.26 8.40L26.26 8.40L26.26 8.40Q26.26 8.06 26.32 7.84L26.32 7.84L26.32 7.84Q26.26 7.60 26.26 7.28L26.26 7.28L26.26 7.28Q26.26 6.94 26.32 6.72L26.32 6.72L26.32 6.72Q26.26 6.48 26.26 6.16L26.26 6.16L26.26 6.16Q26.26 5.82 26.32 5.60L26.32 5.60L27.44 5.60L27.44 5.60Q27.50 5.82 27.50 6.16L27.50 6.16ZM31.36 4.48L30.24 4.48L30.24 4.48Q30.18 4.24 30.18 3.92L30.18 3.92L30.18 3.92Q30.18 3.58 30.24 3.36L30.24 3.36L31.36 3.36L31.36 3.36Q31.42 3.58 31.42 3.92L31.42 3.92L31.42 3.92Q31.42 4.24 31.36 4.48L31.36 4.48ZM32.48 10.08L32.48 10.08Q32.54 10.30 32.54 10.64L32.54 10.64L32.54 10.64Q32.54 10.96 32.48 11.20L32.48 11.20L29.12 11.20L29.12 11.20Q29.06 10.96 29.06 10.64L29.06 10.64L29.06 10.64Q29.06 10.30 29.12 10.08L29.12 10.08L30.24 10.08L30.24 10.08Q30.18 9.84 30.18 9.52L30.18 9.52L30.18 9.52Q30.18 9.18 30.24 8.96L30.24 8.96L30.24 8.96Q30.18 8.72 30.18 8.40L30.18 8.40L30.18 8.40Q30.18 8.06 30.24 7.84L30.24 7.84L30.24 7.84Q30.18 7.60 30.18 7.28L30.18 7.28L30.18 7.28Q30.18 6.94 30.24 6.72L30.24 6.72L29.40 6.72L29.40 6.72Q29.34 6.48 29.34 6.16L29.34 6.16L29.34 6.16Q29.34 5.82 29.40 5.60L29.40 5.60L31.36 5.60L31.36 5.60Q31.42 5.82 31.42 6.16L31.42 6.16L31.42 6.16Q31.42 6.48 31.36 6.72L31.36 6.72L31.36 6.72Q31.42 6.94 31.42 7.28L31.42 7.28L31.42 7.28Q31.42 7.60 31.36 7.84L31.36 7.84L31.36 7.84Q31.42 8.06 31.42 8.40L31.42 8.40L31.42 8.40Q31.42 8.72 31.36 8.96L31.36 8.96L31.36 8.96Q31.42 9.18 31.42 9.52L31.42 9.52L31.42 9.52Q31.42 9.84 31.36 10.08L31.36 10.08L32.48 10.08ZM36.40 10.08L38.08 10.08L38.08 10.08Q38.14 10.30 38.14 10.64L38.14 10.64L38.14 10.64Q38.14 10.96 38.08 11.20L38.08 11.20L35.84 11.20L35.84 11.20Q35.78 10.96 35.78 10.64L35.78 10.64L35.78 10.64Q35.78 10.30 35.84 10.08L35.84 10.08L35.28 10.08L35.28 10.08Q35.22 9.84 35.22 9.52L35.22 9.52L35.22 9.52Q35.22 9.18 35.28 8.96L35.28 8.96L35.28 8.96Q35.22 8.72 35.22 8.40L35.22 8.40L35.22 8.40Q35.22 8.06 35.28 7.84L35.28 7.84L35.28 7.84Q35.22 7.60 35.22 7.28L35.22 7.28L35.22 7.28Q35.22 6.94 35.28 6.72L35.28 6.72L34.16 6.72L34.16 6.72Q34.10 6.48 34.10 6.16L34.10 6.16L34.10 6.16Q34.10 5.82 34.16 5.60L34.16 5.60L35.28 5.60L35.28 5.60Q35.22 5.36 35.22 5.04L35.22 5.04L35.22 5.04Q35.22 4.70 35.28 4.48L35.28 4.48L35.28 4.48Q35.22 4.24 35.22 3.92L35.22 3.92L35.22 3.92Q35.22 3.58 35.28 3.36L35.28 3.36L36.40 3.36L36.40 3.36Q36.46 3.58 36.46 3.92L36.46 3.92L36.46 3.92Q36.46 4.24 36.40 4.48L36.40 4.48L36.40 4.48Q36.46 4.70 36.46 5.04L36.46 5.04L36.46 5.04Q36.46 5.36 36.40 5.60L36.40 5.60L38.08 5.60L38.08 5.60Q38.14 5.82 38.14 6.16L38.14 6.16L38.14 6.16Q38.14 6.48 38.08 6.72L38.08 6.72L36.40 6.72L36.40 6.72Q36.46 6.94 36.46 7.28L36.46 7.28L36.46 7.28Q36.46 7.60 36.40 7.84L36.40 7.84L36.40 7.84Q36.46 8.06 36.46 8.40L36.46 8.40L36.46 8.40Q36.46 8.72 36.40 8.96L36.40 8.96L36.40 8.96Q36.46 9.18 36.46 9.52L36.46 9.52L36.46 9.52Q36.46 9.84 36.40 10.08L36.40 10.08ZM40.94 6.16L40.94 6.16Q40.94 6.48 40.88 6.72L40.88 6.72L41.30 6.72L41.30 6.72Q41.36 6.94 41.36 7.28L41.36 7.28L41.36 7.28Q41.36 7.60 41.30 7.84L41.30 7.84L40.88 7.84L40.88 7.84Q40.94 8.06 40.94 8.40L40.94 8.40L40.94 8.40Q40.94 8.72 40.88 8.96L40.88 8.96L40.88 8.96Q40.94 9.18 40.94 9.52L40.94 9.52L40.94 9.52Q40.94 9.84 40.88 10.08L40.88 10.08L40.88 10.08Q40.94 10.30 40.94 10.64L40.94 10.64L40.94 10.64Q40.94 10.96 40.88 11.20L40.88 11.20L39.76 11.20L39.76 11.20Q39.70 10.96 39.70 10.64L39.70 10.64L39.70 10.64Q39.70 10.30 39.76 10.08L39.76 10.08L39.76 10.08Q39.70 9.84 39.70 9.52L39.70 9.52L39.70 9.52Q39.70 9.18 39.76 8.96L39.76 8.96L39.76 8.96Q39.70 8.72 39.70 8.40L39.70 8.40L39.70 8.40Q39.70 8.06 39.76 7.84L39.76 7.84L39.76 7.84Q39.70 7.60 39.70 7.28L39.70 7.28L39.70 7.28Q39.70 6.94 39.76 6.72L39.76 6.72L39.76 6.72Q39.70 6.48 39.70 6.16L39.70 6.16L39.70 6.16Q39.70 5.82 39.76 5.60L39.76 5.60L39.76 5.60Q39.70 5.36 39.70 5.04L39.70 5.04L39.70 5.04Q39.70 4.70 39.76 4.48L39.76 4.48L39.76 4.48Q39.70 4.24 39.70 3.92L39.70 3.92L39.70 3.92Q39.70 3.58 39.76 3.36L39.76 3.36L40.88 3.36L40.88 3.36Q40.94 3.58 40.94 3.92L40.94 3.92L40.94 3.92Q40.94 4.24 40.88 4.48L40.88 4.48L40.88 4.48Q40.94 4.70 40.94 5.04L40.94 5.04L40.94 5.04Q40.94 5.36 40.88 5.60L40.88 5.60L40.88 5.60Q40.94 5.82 40.94 6.16L40.94 6.16ZM44.24 7.84L44.24 7.84Q44.30 8.06 44.30 8.40L44.30 8.40L44.30 8.40Q44.30 8.72 44.24 8.96L44.24 8.96L44.24 8.96Q44.30 9.18 44.30 9.52L44.30 9.52L44.30 9.52Q44.30 9.84 44.24 10.08L44.24 10.08L44.24 10.08Q44.30 10.30 44.30 10.64L44.30 10.64L44.30 10.64Q44.30 10.96 44.24 11.20L44.24 11.20L43.12 11.20L43.12 11.20Q43.06 10.96 43.06 10.64L43.06 10.64L43.06 10.64Q43.06 10.30 43.12 10.08L43.12 10.08L43.12 10.08Q43.06 9.84 43.06 9.52L43.06 9.52L43.06 9.52Q43.06 9.18 43.12 8.96L43.12 8.96L43.12 8.96Q43.06 8.72 43.06 8.40L43.06 8.40L43.06 8.40Q43.06 8.06 43.12 7.84L43.12 7.84L43.12 7.84Q43.06 7.60 43.06 7.28L43.06 7.28L43.06 7.28Q43.06 6.94 43.12 6.72L43.12 6.72L41.30 6.72L41.30 6.72Q41.24 6.48 41.24 6.16L41.24 6.16L41.24 6.16Q41.24 5.82 41.30 5.60L41.30 5.60L43.54 5.60L43.54 5.60Q43.60 5.82 43.60 6.16L43.60 6.16L43.60 6.16Q43.60 6.48 43.54 6.72L43.54 6.72L44.24 6.72L44.24 6.72Q44.30 6.94 44.30 7.28L44.30 7.28L44.30 7.28Q44.30 7.60 44.24 7.84L44.24 7.84ZM55.50 6.16L55.50 6.16Q55.50 6.48 55.44 6.72L55.44 6.72L55.44 6.72Q55.50 6.94 55.50 7.28L55.50 7.28L55.50 7.28Q55.50 7.60 55.44 7.84L55.44 7.84L55.02 7.84L55.02 7.84Q55.08 8.06 55.08 8.40L55.08 8.40L55.08 8.40Q55.08 8.72 55.02 8.96L55.02 8.96L55.02 8.96Q55.08 9.18 55.08 9.52L55.08 9.52L55.08 9.52Q55.08 9.84 55.02 10.08L55.02 10.08L54.74 10.08L54.74 10.08Q54.80 10.30 54.80 10.64L54.80 10.64L54.80 10.64Q54.80 10.96 54.74 11.20L54.74 11.20L53.90 11.20L53.90 11.20Q53.84 10.96 53.84 10.64L53.84 10.64L53.84 10.64Q53.84 10.30 53.90 10.08L53.90 10.08L53.62 10.08L53.62 10.08Q53.56 9.84 53.56 9.52L53.56 9.52L53.56 9.52Q53.56 9.18 53.62 8.96L53.62 8.96L52.78 8.96L52.78 8.96Q52.84 9.18 52.84 9.52L52.84 9.52L52.84 9.52Q52.84 9.84 52.78 10.08L52.78 10.08L52.50 10.08L52.50 10.08Q52.56 10.30 52.56 10.64L52.56 10.64L52.56 10.64Q52.56 10.96 52.50 11.20L52.50 11.20L51.66 11.20L51.66 11.20Q51.60 10.96 51.60 10.64L51.60 10.64L51.60 10.64Q51.60 10.30 51.66 10.08L51.66 10.08L51.38 10.08L51.38 10.08Q51.32 9.84 51.32 9.52L51.32 9.52L51.32 9.52Q51.32 9.18 51.38 8.96L51.38 8.96L51.38 8.96Q51.32 8.72 51.32 8.40L51.32 8.40L51.32 8.40Q51.32 8.06 51.38 7.84L51.38 7.84L50.96 7.84L50.96 7.84Q50.90 7.60 50.90 7.28L50.90 7.28L50.90 7.28Q50.90 6.94 50.96 6.72L50.96 6.72L50.96 6.72Q50.90 6.48 50.90 6.16L50.90 6.16L50.90 6.16Q50.90 5.82 50.96 5.60L50.96 5.60L52.08 5.60L52.08 5.60Q52.14 5.82 52.14 6.16L52.14 6.16L52.14 6.16Q52.14 6.48 52.08 6.72L52.08 6.72L52.08 6.72Q52.14 6.94 52.14 7.28L52.14 7.28L52.14 7.28Q52.14 7.60 52.08 7.84L52.08 7.84L52.08 7.84Q52.14 8.06 52.14 8.40L52.14 8.40L52.14 8.40Q52.14 8.72 52.08 8.96L52.08 8.96L52.50 8.96L52.50 8.96Q52.44 8.72 52.44 8.40L52.44 8.40L52.44 8.40Q52.44 8.06 52.50 7.84L52.50 7.84L52.78 7.84L52.78 7.84Q52.72 7.60 52.72 7.28L52.72 7.28L52.72 7.28Q52.72 6.94 52.78 6.72L52.78 6.72L52.78 6.72Q52.72 6.48 52.72 6.16L52.72 6.16L52.72 6.16Q52.72 5.82 52.78 5.60L52.78 5.60L53.62 5.60L53.62 5.60Q53.68 5.82 53.68 6.16L53.68 6.16L53.68 6.16Q53.68 6.48 53.62 6.72L53.62 6.72L53.62 6.72Q53.68 6.94 53.68 7.28L53.68 7.28L53.68 7.28Q53.68 7.60 53.62 7.84L53.62 7.84L53.90 7.84L53.90 7.84Q53.96 8.06 53.96 8.40L53.96 8.40L53.96 8.40Q53.96 8.72 53.90 8.96L53.90 8.96L54.32 8.96L54.32 8.96Q54.26 8.72 54.26 8.40L54.26 8.40L54.26 8.40Q54.26 8.06 54.32 7.84L54.32 7.84L54.32 7.84Q54.26 7.60 54.26 7.28L54.26 7.28L54.26 7.28Q54.26 6.94 54.32 6.72L54.32 6.72L54.32 6.72Q54.26 6.48 54.26 6.16L54.26 6.16L54.26 6.16Q54.26 5.82 54.32 5.60L54.32 5.60L55.44 5.60L55.44 5.60Q55.50 5.82 55.50 6.16L55.50 6.16ZM61.10 7.28L61.10 7.28Q61.10 7.60 61.04 7.84L61.04 7.84L61.04 7.84Q61.10 8.06 61.10 8.40L61.10 8.40L61.10 8.40Q61.10 8.72 61.04 8.96L61.04 8.96L58.10 8.96L58.10 8.96Q58.16 9.18 58.16 9.52L58.16 9.52L58.16 9.52Q58.16 9.84 58.10 10.08L58.10 10.08L60.48 10.08L60.48 10.08Q60.54 10.30 60.54 10.64L60.54 10.64L60.54 10.64Q60.54 10.96 60.48 11.20L60.48 11.20L57.68 11.20L57.68 11.20Q57.62 10.96 57.62 10.64L57.62 10.64L57.62 10.64Q57.62 10.30 57.68 10.08L57.68 10.08L56.98 10.08L56.98 10.08Q56.92 9.84 56.92 9.52L56.92 9.52L56.92 9.52Q56.92 9.18 56.98 8.96L56.98 8.96L56.56 8.96L56.56 8.96Q56.50 8.72 56.50 8.40L56.50 8.40L56.50 8.40Q56.50 8.06 56.56 7.84L56.56 7.84L56.98 7.84L56.98 7.84Q56.92 7.60 56.92 7.28L56.92 7.28L56.92 7.28Q56.92 6.94 56.98 6.72L56.98 6.72L57.68 6.72L57.68 6.72Q57.62 6.48 57.62 6.16L57.62 6.16L57.62 6.16Q57.62 5.82 57.68 5.60L57.68 5.60L60.48 5.60L60.48 5.60Q60.54 5.82 60.54 6.16L60.54 6.16L60.54 6.16Q60.54 6.48 60.48 6.72L60.48 6.72L61.04 6.72L61.04 6.72Q61.10 6.94 61.10 7.28L61.10 7.28ZM59.92 7.84L59.92 7.84Q59.86 7.60 59.86 7.28L59.86 7.28L59.86 7.28Q59.86 6.94 59.92 6.72L59.92 6.72L58.10 6.72L58.10 6.72Q58.16 6.94 58.16 7.28L58.16 7.28L58.16 7.28Q58.16 7.60 58.10 7.84L58.10 7.84L59.92 7.84ZM63.28 8.96L63.28 8.96Q63.34 9.18 63.34 9.52L63.34 9.52L63.34 9.52Q63.34 9.84 63.28 10.08L63.28 10.08L62.72 10.08L62.72 10.08Q62.78 10.30 62.78 10.64L62.78 10.64L62.78 10.64Q62.78 10.96 62.72 11.20L62.72 11.20L62.16 11.20L62.16 11.20Q62.10 10.96 62.10 10.64L62.10 10.64L62.10 10.64Q62.10 10.30 62.16 10.08L62.16 10.08L62.16 10.08Q62.10 9.84 62.10 9.52L62.10 9.52L62.10 9.52Q62.10 9.18 62.16 8.96L62.16 8.96L62.16 8.96Q62.10 8.72 62.10 8.40L62.10 8.40L62.10 8.40Q62.10 8.06 62.16 7.84L62.16 7.84L62.16 7.84Q62.10 7.60 62.10 7.28L62.10 7.28L62.10 7.28Q62.10 6.94 62.16 6.72L62.16 6.72L62.16 6.72Q62.10 6.48 62.10 6.16L62.10 6.16L62.10 6.16Q62.10 5.82 62.16 5.60L62.16 5.60L62.16 5.60Q62.10 5.36 62.10 5.04L62.10 5.04L62.10 5.04Q62.10 4.70 62.16 4.48L62.16 4.48L62.16 4.48Q62.10 4.24 62.10 3.92L62.10 3.92L62.10 3.92Q62.10 3.58 62.16 3.36L62.16 3.36L63.28 3.36L63.28 3.36Q63.34 3.58 63.34 3.92L63.34 3.92L63.34 3.92Q63.34 4.24 63.28 4.48L63.28 4.48L63.28 4.48Q63.34 4.70 63.34 5.04L63.34 5.04L63.34 5.04Q63.34 5.36 63.28 5.60L63.28 5.60L63.28 5.60Q63.34 5.82 63.34 6.16L63.34 6.16L63.34 6.16Q63.34 6.48 63.28 6.72L63.28 6.72L63.84 6.72L63.84 6.72Q63.90 6.94 63.90 7.28L63.90 7.28L63.90 7.28Q63.90 7.60 63.84 7.84L63.84 7.84L63.28 7.84L63.28 7.84Q63.34 8.06 63.34 8.40L63.34 8.40L63.34 8.40Q63.34 8.72 63.28 8.96L63.28 8.96ZM66.70 8.40L66.70 8.40Q66.70 8.72 66.64 8.96L66.64 8.96L66.08 8.96L66.08 8.96Q66.14 9.18 66.14 9.52L66.14 9.52L66.14 9.52Q66.14 9.84 66.08 10.08L66.08 10.08L64.96 10.08L64.96 10.08Q64.90 9.84 64.90 9.52L64.90 9.52L64.90 9.52Q64.90 9.18 64.96 8.96L64.96 8.96L65.52 8.96L65.52 8.96Q65.46 8.72 65.46 8.40L65.46 8.40L65.46 8.40Q65.46 8.06 65.52 7.84L65.52 7.84L64.96 7.84L64.96 7.84Q64.90 7.60 64.90 7.28L64.90 7.28L64.90 7.28Q64.90 6.94 64.96 6.72L64.96 6.72L63.84 6.72L63.84 6.72Q63.78 6.48 63.78 6.16L63.78 6.16L63.78 6.16Q63.78 5.82 63.84 5.60L63.84 5.60L65.52 5.60L65.52 5.60Q65.58 5.82 65.58 6.16L65.58 6.16L65.58 6.16Q65.58 6.48 65.52 6.72L65.52 6.72L66.08 6.72L66.08 6.72Q66.14 6.94 66.14 7.28L66.14 7.28L66.14 7.28Q66.14 7.60 66.08 7.84L66.08 7.84L66.64 7.84L66.64 7.84Q66.70 8.06 66.70 8.40L66.70 8.40ZM63.22 10.64L63.22 10.64Q63.22 10.30 63.28 10.08L63.28 10.08L64.96 10.08L64.96 10.08Q65.02 10.30 65.02 10.64L65.02 10.64L65.02 10.64Q65.02 10.96 64.96 11.20L64.96 11.20L63.28 11.20L63.28 11.20Q63.22 10.96 63.22 10.64L63.22 10.64ZM72.02 6.16L72.02 6.16Q72.02 6.48 71.96 6.72L71.96 6.72L71.40 6.72L71.40 6.72Q71.46 6.94 71.46 7.28L71.46 7.28L71.46 7.28Q71.46 7.60 71.40 7.84L71.40 7.84L71.96 7.84L71.96 7.84Q72.02 8.06 72.02 8.40L72.02 8.40L72.02 8.40Q72.02 8.72 71.96 8.96L71.96 8.96L71.96 8.96Q72.02 9.18 72.02 9.52L72.02 9.52L72.02 9.52Q72.02 9.84 71.96 10.08L71.96 10.08L71.40 10.08L71.40 10.08Q71.46 10.30 71.46 10.64L71.46 10.64L71.46 10.64Q71.46 10.96 71.40 11.20L71.40 11.20L68.60 11.20L68.60 11.20Q68.54 10.96 68.54 10.64L68.54 10.64L68.54 10.64Q68.54 10.30 68.60 10.08L68.60 10.08L68.04 10.08L68.04 10.08Q67.98 9.84 67.98 9.52L67.98 9.52L67.98 9.52Q67.98 9.18 68.04 8.96L68.04 8.96L69.16 8.96L69.16 8.96Q69.22 9.18 69.22 9.52L69.22 9.52L69.22 9.52Q69.22 9.84 69.16 10.08L69.16 10.08L70.84 10.08L70.84 10.08Q70.78 9.84 70.78 9.52L70.78 9.52L70.78 9.52Q70.78 9.18 70.84 8.96L70.84 8.96L70.84 8.96Q70.78 8.72 70.78 8.40L70.78 8.40L70.78 8.40Q70.78 8.06 70.84 7.84L70.84 7.84L69.44 7.84L69.44 7.84Q69.38 7.60 69.38 7.28L69.38 7.28L69.38 7.28Q69.38 6.94 69.44 6.72L69.44 6.72L70.84 6.72L70.84 6.72Q70.78 6.48 70.78 6.16L70.78 6.16L70.78 6.16Q70.78 5.82 70.84 5.60L70.84 5.60L70.84 5.60Q70.78 5.36 70.78 5.04L70.78 5.04L70.78 5.04Q70.78 4.70 70.84 4.48L70.84 4.48L69.16 4.48L69.16 4.48Q69.22 4.70 69.22 5.04L69.22 5.04L69.22 5.04Q69.22 5.36 69.16 5.60L69.16 5.60L68.04 5.60L68.04 5.60Q67.98 5.36 67.98 5.04L67.98 5.04L67.98 5.04Q67.98 4.70 68.04 4.48L68.04 4.48L68.60 4.48L68.60 4.48Q68.54 4.24 68.54 3.92L68.54 3.92L68.54 3.92Q68.54 3.58 68.60 3.36L68.60 3.36L71.40 3.36L71.40 3.36Q71.46 3.58 71.46 3.92L71.46 3.92L71.46 3.92Q71.46 4.24 71.40 4.48L71.40 4.48L71.96 4.48L71.96 4.48Q72.02 4.70 72.02 5.04L72.02 5.04L72.02 5.04Q72.02 5.36 71.96 5.60L71.96 5.60L71.96 5.60Q72.02 5.82 72.02 6.16L72.02 6.16Z"></path></g><defs data-v-423bf9ae=""><linearGradient data-v-423bf9ae="" gradientTransform="rotate(25)" id="06a72ae6-e053-47fd-a6d9-006cf0f102da" x1="0%" y1="0%" x2="100%" y2="0%"><stop data-v-423bf9ae="" offset="0%" style="stop-color: rgb(0, 125, 232); stop-opacity: 1;"></stop><stop data-v-423bf9ae="" offset="100%" style="stop-color: rgb(161, 195, 219); stop-opacity: 1;"></stop></linearGradient></defs><g data-v-423bf9ae="" id="9ee1be9f-9541-4beb-b74b-f60dc12d043a" transform="matrix(1.0868111504448785,0,0,1.0868111504448785,-13.255261890115804,-0.23894260335429607)" stroke="none" fill="url(#06a72ae6-e053-47fd-a6d9-006cf0f102da)"><g clip-rule="evenodd"><path d="M12.983 10.59l17.018 88.223-5.872-59.049 29.021-1.892-.054-9.883L64.549 1 53.622 18.977z"></path><path d="M59.389 54.548l5.16-53.541-8.74 39.716-19.612 1.045 1.57 20.462-7.766 36.583 12.057-39.899z"></path><path d="M62.8 67.182l.549-10.453-15.979 3.755-.032 11.797-17.337 26.532 21.68-27.616zM65.711 62.394l14.841-4.731 1.509-12.532-15.899 2.095zM72.07 44.502l10.988-1.417 1.581-10.278-8.079-.373L64.549 1l8.43 30.967z"></path><path d="M87.413 31.294l1.256-9.506-9.544-2.694L64.549 1l14.483 22.437-.422 7z"></path></g></g><!----><g data-v-423bf9ae="" id="0510b10b-c46d-4a69-a154-0221a9669fc6" fill="#253D52" transform="matrix(Infinity,0,0,Infinity,0,0)"><path d=""></path></g></svg>