<svg xmlns="http://www.w3.org/2000/svg" version="1.1" xmlns:xlink="http://www.w3.org/1999/xlink" xmlns:svgjs="http://svgjs.com/svgjs" width="1440" height="560" preserveAspectRatio="none" viewBox="0 0 1440 560"><g mask="url(&quot;#SvgjsMask2895&quot;)" fill="none"><rect width="1440" height="560" x="0" y="0" fill="#0e2a47"></rect><path d="M1209.32 503.77L1220.71 503.77L1220.71 515.16L1209.32 515.16z" fill="rgba(0, 125, 232, 1)"></path><path d="M717.96 24.41a52.74 52.74 0 1 0-47.37 94.25z" stroke="rgba(0, 0, 119, 0.6666666666666666)"></path><path d="M926.09 354.14 a13.53 13.53 0 1 0 27.06 0 a13.53 13.53 0 1 0 -27.06 0z" stroke="rgba(248, 195, 92, 1)"></path><path d="M1395.06 291.9L1427.69 291.9L1427.69 325.87L1395.06 325.87z" stroke="rgba(248, 195, 92, 1)"></path><path d="M1026.73 143.51a36.34 36.34 0 1 0-20.63 69.69z" fill="rgba(248, 195, 92, 1)"></path><path d="M57.02 374.51 a40.01 40.01 0 1 0 80.02 0 a40.01 40.01 0 1 0 -80.02 0z" fill="rgba(0, 0, 119, 0.6666666666666666)"></path><path d="M1001.7 343.25L1011.9 343.25L1011.9 378.36L1001.7 378.36z" fill="rgba(57, 81, 102, 1)"></path><path d="M642.97 372.14 a22.68 22.68 0 1 0 45.36 0 a22.68 22.68 0 1 0 -45.36 0z" stroke="rgba(0, 125, 232, 1)"></path><path d="M694.72 316.14a17.7 17.7 0 1 0 14.69 32.21z" stroke="rgba(57, 81, 102, 1)"></path><path d="M1176.86 173.2L1203.52 173.2L1203.52 199.86L1176.86 199.86z" stroke="rgba(248, 195, 92, 1)"></path><path d="M300.94 209.35L316.52 209.35L316.52 224.93L300.94 224.93z" stroke="rgba(0, 125, 232, 1)"></path><path d="M74.18 271.82L125.88 271.82L125.88 323.52L74.18 323.52z" stroke="rgba(0, 0, 119, 0.6666666666666666)"></path><path d="M486.11 12.44L524.36 12.44L524.36 50.69L486.11 50.69z" fill="rgba(0, 125, 232, 1)"></path><path d="M65.69 232.18a9.78 9.78 0 1 0-18.08 7.46z" fill="rgba(57, 81, 102, 1)"></path><path d="M456.65 236.71a18.41 18.41 0 1 0 7.18-36.12z" stroke="rgba(0, 0, 119, 0.6666666666666666)"></path><path d="M1402.52 216.58a52.25 52.25 0 1 0-104.29 6.75z" fill="rgba(248, 195, 92, 1)"></path><path d="M196.28 113.57L202.95 113.57L202.95 120.24L196.28 120.24z" stroke="rgba(57, 81, 102, 1)"></path><path d="M1136.04 198.41L1159.03 198.41L1159.03 232.47L1136.04 232.47z" stroke="rgba(57, 81, 102, 1)"></path><path d="M295.42 106.53L348.25 106.53L348.25 159.36L295.42 159.36z" stroke="rgba(0, 0, 119, 0.6666666666666666)"></path><path d="M1152.06 296.59L1163.31 296.59L1163.31 307.84L1152.06 307.84z" stroke="rgba(0, 125, 232, 1)"></path><path d="M1108.81 161.24 a1.14 1.14 0 1 0 2.28 0 a1.14 1.14 0 1 0 -2.28 0z" fill="rgba(57, 81, 102, 1)"></path><path d="M825.06 75.91 a45.69 45.69 0 1 0 91.38 0 a45.69 45.69 0 1 0 -91.38 0z" fill="rgba(57, 81, 102, 1)"></path><path d="M1329.95 522.75L1357.17 522.75L1357.17 549.97L1329.95 549.97z" stroke="rgba(248, 195, 92, 1)"></path><path d="M1058.23 333.01L1107.72 333.01L1107.72 381.92L1058.23 381.92z" stroke="rgba(248, 195, 92, 1)"></path><path d="M382.76 208.33L423.91 208.33L423.91 221.41L382.76 221.41z" fill="rgba(248, 195, 92, 1)"></path><path d="M586.65 78.56 a37.9 37.9 0 1 0 75.8 0 a37.9 37.9 0 1 0 -75.8 0z" fill="rgba(248, 195, 92, 1)"></path><path d="M1077.58 197.99L1104.84 197.99L1104.84 225.25L1077.58 225.25z" fill="rgba(0, 0, 119, 0.6666666666666666)"></path><path d="M626.46 171.39a32.63 32.63 0 1 0-33.26 56.15z" stroke="rgba(0, 0, 119, 0.6666666666666666)"></path><path d="M663.61 137.7L684.79 137.7L684.79 158.88L663.61 158.88z" fill="rgba(248, 195, 92, 1)"></path><path d="M-4.53 413.98 a45.35 45.35 0 1 0 90.7 0 a45.35 45.35 0 1 0 -90.7 0z" stroke="rgba(57, 81, 102, 1)"></path><path d="M196.54 434.49L212.46 434.49L212.46 470.05L196.54 470.05z" stroke="rgba(0, 125, 232, 1)"></path><path d="M-0.29 205.74a20.5 20.5 0 1 0 34.18-22.64z" stroke="rgba(0, 125, 232, 1)"></path><path d="M1118.18 158.48 a39.92 39.92 0 1 0 79.84 0 a39.92 39.92 0 1 0 -79.84 0z" stroke="rgba(0, 125, 232, 1)"></path></g><defs><mask id="SvgjsMask2895"><rect width="1440" height="560" fill="#ffffff"></rect></mask></defs></svg>